<mxfile host="app.diagrams.net" modified="2022-04-10T01:32:48.479Z" agent="5.0 (Windows)" etag="KpHTjcFn3Dwrq2uLc92X" version="17.1.1" type="github">
  <diagram name="Page-1" id="42789a77-a242-8287-6e28-9cd8cfd52e62">
    <mxGraphModel dx="1209" dy="624" grid="1" gridSize="10" guides="1" tooltips="1" connect="1" arrows="1" fold="1" page="1" pageScale="1" pageWidth="1100" pageHeight="850" background="none" math="0" shadow="0">
      <root>
        <mxCell id="0" />
        <mxCell id="1" parent="0" />
        <mxCell id="_5v1Q2Jf54vhMXoZwSZo-46" value="" style="edgeStyle=orthogonalEdgeStyle;shape=link;rounded=0;orthogonalLoop=1;jettySize=auto;html=1;fontFamily=Titillium Web;fontSource=https%3A%2F%2Ffonts.googleapis.com%2Fcss%3Ffamily%3DTitillium%2BWeb;" edge="1" parent="1" source="_5v1Q2Jf54vhMXoZwSZo-1" target="_5v1Q2Jf54vhMXoZwSZo-14">
          <mxGeometry relative="1" as="geometry" />
        </mxCell>
        <mxCell id="_5v1Q2Jf54vhMXoZwSZo-1" value="Main Entrance" style="rounded=1;whiteSpace=wrap;html=1;fontFamily=Titillium Web;fontSource=https%3A%2F%2Ffonts.googleapis.com%2Fcss%3Ffamily%3DTitillium%2BWeb;" vertex="1" parent="1">
          <mxGeometry x="80" y="330" width="120" height="60" as="geometry" />
        </mxCell>
        <mxCell id="_5v1Q2Jf54vhMXoZwSZo-43" value="" style="edgeStyle=orthogonalEdgeStyle;shape=link;rounded=0;orthogonalLoop=1;jettySize=auto;html=1;fontFamily=Titillium Web;fontSource=https%3A%2F%2Ffonts.googleapis.com%2Fcss%3Ffamily%3DTitillium%2BWeb;" edge="1" parent="1" source="_5v1Q2Jf54vhMXoZwSZo-3" target="_5v1Q2Jf54vhMXoZwSZo-16">
          <mxGeometry relative="1" as="geometry" />
        </mxCell>
        <mxCell id="_5v1Q2Jf54vhMXoZwSZo-3" value="&lt;div&gt;Processing&lt;/div&gt;" style="rounded=1;whiteSpace=wrap;html=1;fontFamily=Titillium Web;fontSource=https%3A%2F%2Ffonts.googleapis.com%2Fcss%3Ffamily%3DTitillium%2BWeb;" vertex="1" parent="1">
          <mxGeometry x="280" y="330" width="120" height="60" as="geometry" />
        </mxCell>
        <mxCell id="_5v1Q2Jf54vhMXoZwSZo-42" value="" style="edgeStyle=orthogonalEdgeStyle;shape=link;rounded=0;orthogonalLoop=1;jettySize=auto;html=1;fontFamily=Titillium Web;fontSource=https%3A%2F%2Ffonts.googleapis.com%2Fcss%3Ffamily%3DTitillium%2BWeb;" edge="1" parent="1" source="_5v1Q2Jf54vhMXoZwSZo-4" target="_5v1Q2Jf54vhMXoZwSZo-3">
          <mxGeometry relative="1" as="geometry" />
        </mxCell>
        <mxCell id="_5v1Q2Jf54vhMXoZwSZo-4" value="Medical" style="rounded=1;whiteSpace=wrap;html=1;fontFamily=Titillium Web;fontSource=https%3A%2F%2Ffonts.googleapis.com%2Fcss%3Ffamily%3DTitillium%2BWeb;" vertex="1" parent="1">
          <mxGeometry x="280" y="220" width="120" height="60" as="geometry" />
        </mxCell>
        <mxCell id="_5v1Q2Jf54vhMXoZwSZo-5" value="Officers" style="rounded=1;whiteSpace=wrap;html=1;fontFamily=Titillium Web;fontSource=https%3A%2F%2Ffonts.googleapis.com%2Fcss%3Ffamily%3DTitillium%2BWeb;" vertex="1" parent="1">
          <mxGeometry x="380" y="440" width="120" height="60" as="geometry" />
        </mxCell>
        <mxCell id="_5v1Q2Jf54vhMXoZwSZo-6" value="Armory" style="rounded=1;whiteSpace=wrap;html=1;fontFamily=Titillium Web;fontSource=https%3A%2F%2Ffonts.googleapis.com%2Fcss%3Ffamily%3DTitillium%2BWeb;" vertex="1" parent="1">
          <mxGeometry x="180" y="440" width="120" height="60" as="geometry" />
        </mxCell>
        <mxCell id="_5v1Q2Jf54vhMXoZwSZo-31" style="edgeStyle=orthogonalEdgeStyle;shape=link;rounded=0;orthogonalLoop=1;jettySize=auto;html=1;exitX=1;exitY=0.5;exitDx=0;exitDy=0;entryX=0;entryY=0.5;entryDx=0;entryDy=0;fontFamily=Titillium Web;fontSource=https%3A%2F%2Ffonts.googleapis.com%2Fcss%3Ffamily%3DTitillium%2BWeb;" edge="1" parent="1" source="_5v1Q2Jf54vhMXoZwSZo-7" target="_5v1Q2Jf54vhMXoZwSZo-11">
          <mxGeometry relative="1" as="geometry" />
        </mxCell>
        <mxCell id="_5v1Q2Jf54vhMXoZwSZo-35" style="edgeStyle=orthogonalEdgeStyle;shape=link;rounded=0;orthogonalLoop=1;jettySize=auto;html=1;exitX=0.5;exitY=0;exitDx=0;exitDy=0;entryX=0.5;entryY=1;entryDx=0;entryDy=0;entryPerimeter=0;fontFamily=Titillium Web;fontSource=https%3A%2F%2Ffonts.googleapis.com%2Fcss%3Ffamily%3DTitillium%2BWeb;" edge="1" parent="1" source="_5v1Q2Jf54vhMXoZwSZo-7" target="_5v1Q2Jf54vhMXoZwSZo-18">
          <mxGeometry relative="1" as="geometry" />
        </mxCell>
        <mxCell id="_5v1Q2Jf54vhMXoZwSZo-7" value="Yard" style="rounded=1;whiteSpace=wrap;html=1;fontFamily=Titillium Web;fontSource=https%3A%2F%2Ffonts.googleapis.com%2Fcss%3Ffamily%3DTitillium%2BWeb;" vertex="1" parent="1">
          <mxGeometry x="560" y="330" width="120" height="60" as="geometry" />
        </mxCell>
        <mxCell id="_5v1Q2Jf54vhMXoZwSZo-36" value="" style="edgeStyle=orthogonalEdgeStyle;shape=link;rounded=0;orthogonalLoop=1;jettySize=auto;html=1;fontFamily=Titillium Web;fontSource=https%3A%2F%2Ffonts.googleapis.com%2Fcss%3Ffamily%3DTitillium%2BWeb;" edge="1" parent="1" source="_5v1Q2Jf54vhMXoZwSZo-8" target="_5v1Q2Jf54vhMXoZwSZo-18">
          <mxGeometry relative="1" as="geometry" />
        </mxCell>
        <mxCell id="_5v1Q2Jf54vhMXoZwSZo-8" value="Cell Block B" style="rounded=1;whiteSpace=wrap;html=1;fontFamily=Titillium Web;fontSource=https%3A%2F%2Ffonts.googleapis.com%2Fcss%3Ffamily%3DTitillium%2BWeb;" vertex="1" parent="1">
          <mxGeometry x="560" y="200" width="120" height="60" as="geometry" />
        </mxCell>
        <mxCell id="_5v1Q2Jf54vhMXoZwSZo-52" style="edgeStyle=none;shape=connector;rounded=0;orthogonalLoop=1;jettySize=auto;html=1;exitX=0;exitY=0.5;exitDx=0;exitDy=0;dashed=1;labelBackgroundColor=default;fontFamily=Titillium Web;fontSource=https%3A%2F%2Ffonts.googleapis.com%2Fcss%3Ffamily%3DTitillium%2BWeb;fontSize=11;fontColor=default;endArrow=none;strokeColor=default;entryX=0.5;entryY=1;entryDx=0;entryDy=0;" edge="1" parent="1" source="_5v1Q2Jf54vhMXoZwSZo-9" target="_5v1Q2Jf54vhMXoZwSZo-5">
          <mxGeometry relative="1" as="geometry">
            <mxPoint x="440" y="510" as="targetPoint" />
            <Array as="points">
              <mxPoint x="440" y="510" />
            </Array>
          </mxGeometry>
        </mxCell>
        <mxCell id="_5v1Q2Jf54vhMXoZwSZo-9" value="Cell Block A" style="rounded=1;whiteSpace=wrap;html=1;fontFamily=Titillium Web;fontSource=https%3A%2F%2Ffonts.googleapis.com%2Fcss%3Ffamily%3DTitillium%2BWeb;" vertex="1" parent="1">
          <mxGeometry x="560" y="480" width="120" height="60" as="geometry" />
        </mxCell>
        <mxCell id="_5v1Q2Jf54vhMXoZwSZo-25" style="edgeStyle=orthogonalEdgeStyle;shape=link;rounded=0;orthogonalLoop=1;jettySize=auto;html=1;exitX=0;exitY=0.5;exitDx=0;exitDy=0;entryX=1;entryY=0.5;entryDx=0;entryDy=0;entryPerimeter=0;fontFamily=Titillium Web;fontSource=https%3A%2F%2Ffonts.googleapis.com%2Fcss%3Ffamily%3DTitillium%2BWeb;" edge="1" parent="1" source="_5v1Q2Jf54vhMXoZwSZo-10" target="_5v1Q2Jf54vhMXoZwSZo-21">
          <mxGeometry relative="1" as="geometry" />
        </mxCell>
        <mxCell id="_5v1Q2Jf54vhMXoZwSZo-10" value="Cell Block C" style="rounded=1;whiteSpace=wrap;html=1;fontFamily=Titillium Web;fontSource=https%3A%2F%2Ffonts.googleapis.com%2Fcss%3Ffamily%3DTitillium%2BWeb;" vertex="1" parent="1">
          <mxGeometry x="770" y="420" width="120" height="60" as="geometry" />
        </mxCell>
        <mxCell id="_5v1Q2Jf54vhMXoZwSZo-32" style="edgeStyle=orthogonalEdgeStyle;shape=link;rounded=0;orthogonalLoop=1;jettySize=auto;html=1;exitX=1;exitY=0.5;exitDx=0;exitDy=0;entryX=0;entryY=0.5;entryDx=0;entryDy=0;fontFamily=Titillium Web;fontSource=https%3A%2F%2Ffonts.googleapis.com%2Fcss%3Ffamily%3DTitillium%2BWeb;" edge="1" parent="1" source="_5v1Q2Jf54vhMXoZwSZo-11" target="_5v1Q2Jf54vhMXoZwSZo-12">
          <mxGeometry relative="1" as="geometry" />
        </mxCell>
        <mxCell id="_5v1Q2Jf54vhMXoZwSZo-53" style="edgeStyle=none;shape=connector;rounded=0;orthogonalLoop=1;jettySize=auto;html=1;exitX=0.5;exitY=0;exitDx=0;exitDy=0;dashed=1;labelBackgroundColor=default;fontFamily=Titillium Web;fontSource=https%3A%2F%2Ffonts.googleapis.com%2Fcss%3Ffamily%3DTitillium%2BWeb;fontSize=11;fontColor=default;endArrow=none;strokeColor=default;entryX=1;entryY=0.5;entryDx=0;entryDy=0;" edge="1" parent="1" source="_5v1Q2Jf54vhMXoZwSZo-11" target="_5v1Q2Jf54vhMXoZwSZo-8">
          <mxGeometry relative="1" as="geometry">
            <mxPoint x="760" y="220" as="targetPoint" />
            <Array as="points">
              <mxPoint x="760" y="230" />
            </Array>
          </mxGeometry>
        </mxCell>
        <mxCell id="_5v1Q2Jf54vhMXoZwSZo-11" value="Mess" style="rounded=1;whiteSpace=wrap;html=1;fontFamily=Titillium Web;fontSource=https%3A%2F%2Ffonts.googleapis.com%2Fcss%3Ffamily%3DTitillium%2BWeb;" vertex="1" parent="1">
          <mxGeometry x="700" y="330" width="120" height="60" as="geometry" />
        </mxCell>
        <mxCell id="_5v1Q2Jf54vhMXoZwSZo-12" value="Work Yard" style="rounded=1;whiteSpace=wrap;html=1;fontFamily=Titillium Web;fontSource=https%3A%2F%2Ffonts.googleapis.com%2Fcss%3Ffamily%3DTitillium%2BWeb;" vertex="1" parent="1">
          <mxGeometry x="840" y="330" width="120" height="60" as="geometry" />
        </mxCell>
        <mxCell id="_5v1Q2Jf54vhMXoZwSZo-13" value="Security" style="rounded=1;whiteSpace=wrap;html=1;fontFamily=Titillium Web;fontSource=https%3A%2F%2Ffonts.googleapis.com%2Fcss%3Ffamily%3DTitillium%2BWeb;" vertex="1" parent="1">
          <mxGeometry x="420" y="220" width="120" height="60" as="geometry" />
        </mxCell>
        <mxCell id="_5v1Q2Jf54vhMXoZwSZo-45" value="" style="edgeStyle=orthogonalEdgeStyle;shape=link;rounded=0;orthogonalLoop=1;jettySize=auto;html=1;fontFamily=Titillium Web;fontSource=https%3A%2F%2Ffonts.googleapis.com%2Fcss%3Ffamily%3DTitillium%2BWeb;" edge="1" parent="1" source="_5v1Q2Jf54vhMXoZwSZo-14" target="_5v1Q2Jf54vhMXoZwSZo-3">
          <mxGeometry relative="1" as="geometry" />
        </mxCell>
        <mxCell id="_5v1Q2Jf54vhMXoZwSZo-14" value="&lt;div&gt;Guard&lt;/div&gt;&lt;div&gt;Post&lt;br&gt;&lt;/div&gt;" style="verticalLabelPosition=middle;verticalAlign=middle;html=1;shape=mxgraph.basic.patternFillRect;fillStyle=diagGrid;step=5;fillStrokeWidth=0.2;fillStrokeColor=#dddddd;fontFamily=Titillium Web;fontSource=https%3A%2F%2Ffonts.googleapis.com%2Fcss%3Ffamily%3DTitillium%2BWeb;labelPosition=center;align=center;" vertex="1" parent="1">
          <mxGeometry x="220" y="330" width="40" height="60" as="geometry" />
        </mxCell>
        <mxCell id="_5v1Q2Jf54vhMXoZwSZo-23" style="edgeStyle=orthogonalEdgeStyle;shape=link;rounded=0;orthogonalLoop=1;jettySize=auto;html=1;exitX=0;exitY=0.5;exitDx=0;exitDy=0;entryX=1;entryY=0.5;entryDx=0;entryDy=0;entryPerimeter=0;fontFamily=Titillium Web;fontSource=https%3A%2F%2Ffonts.googleapis.com%2Fcss%3Ffamily%3DTitillium%2BWeb;" edge="1" parent="1" source="_5v1Q2Jf54vhMXoZwSZo-15" target="_5v1Q2Jf54vhMXoZwSZo-20">
          <mxGeometry relative="1" as="geometry" />
        </mxCell>
        <mxCell id="_5v1Q2Jf54vhMXoZwSZo-49" style="edgeStyle=none;shape=connector;rounded=0;orthogonalLoop=1;jettySize=auto;html=1;exitX=0.5;exitY=1;exitDx=0;exitDy=0;dashed=1;labelBackgroundColor=default;fontFamily=Titillium Web;fontSource=https%3A%2F%2Ffonts.googleapis.com%2Fcss%3Ffamily%3DTitillium%2BWeb;fontSize=11;fontColor=default;endArrow=none;strokeColor=default;" edge="1" parent="1" source="_5v1Q2Jf54vhMXoZwSZo-15" target="_5v1Q2Jf54vhMXoZwSZo-9">
          <mxGeometry relative="1" as="geometry">
            <Array as="points">
              <mxPoint x="1030" y="510" />
            </Array>
          </mxGeometry>
        </mxCell>
        <mxCell id="_5v1Q2Jf54vhMXoZwSZo-15" value="Isolation Cells" style="rounded=1;whiteSpace=wrap;html=1;fontFamily=Titillium Web;fontSource=https%3A%2F%2Ffonts.googleapis.com%2Fcss%3Ffamily%3DTitillium%2BWeb;" vertex="1" parent="1">
          <mxGeometry x="970" y="420" width="120" height="60" as="geometry" />
        </mxCell>
        <mxCell id="_5v1Q2Jf54vhMXoZwSZo-37" value="" style="edgeStyle=orthogonalEdgeStyle;shape=link;rounded=0;orthogonalLoop=1;jettySize=auto;html=1;fontFamily=Titillium Web;fontSource=https%3A%2F%2Ffonts.googleapis.com%2Fcss%3Ffamily%3DTitillium%2BWeb;" edge="1" parent="1" source="_5v1Q2Jf54vhMXoZwSZo-16" target="_5v1Q2Jf54vhMXoZwSZo-13">
          <mxGeometry relative="1" as="geometry" />
        </mxCell>
        <mxCell id="_5v1Q2Jf54vhMXoZwSZo-38" value="" style="edgeStyle=orthogonalEdgeStyle;shape=link;rounded=0;orthogonalLoop=1;jettySize=auto;html=1;fontFamily=Titillium Web;fontSource=https%3A%2F%2Ffonts.googleapis.com%2Fcss%3Ffamily%3DTitillium%2BWeb;" edge="1" parent="1" source="_5v1Q2Jf54vhMXoZwSZo-16" target="_5v1Q2Jf54vhMXoZwSZo-5">
          <mxGeometry relative="1" as="geometry" />
        </mxCell>
        <mxCell id="_5v1Q2Jf54vhMXoZwSZo-44" value="" style="edgeStyle=orthogonalEdgeStyle;shape=link;rounded=0;orthogonalLoop=1;jettySize=auto;html=1;fontFamily=Titillium Web;fontSource=https%3A%2F%2Ffonts.googleapis.com%2Fcss%3Ffamily%3DTitillium%2BWeb;" edge="1" parent="1" source="_5v1Q2Jf54vhMXoZwSZo-16" target="_5v1Q2Jf54vhMXoZwSZo-7">
          <mxGeometry relative="1" as="geometry" />
        </mxCell>
        <mxCell id="_5v1Q2Jf54vhMXoZwSZo-16" value="&lt;div&gt;Guard&lt;/div&gt;&lt;div&gt;Post&lt;br&gt;&lt;/div&gt;" style="verticalLabelPosition=middle;verticalAlign=middle;html=1;shape=mxgraph.basic.patternFillRect;fillStyle=diagGrid;step=5;fillStrokeWidth=0.2;fillStrokeColor=#dddddd;fontFamily=Titillium Web;fontSource=https%3A%2F%2Ffonts.googleapis.com%2Fcss%3Ffamily%3DTitillium%2BWeb;labelPosition=center;align=center;" vertex="1" parent="1">
          <mxGeometry x="440" y="330" width="40" height="60" as="geometry" />
        </mxCell>
        <mxCell id="_5v1Q2Jf54vhMXoZwSZo-40" value="" style="edgeStyle=orthogonalEdgeStyle;shape=link;rounded=0;orthogonalLoop=1;jettySize=auto;html=1;fontFamily=Titillium Web;fontSource=https%3A%2F%2Ffonts.googleapis.com%2Fcss%3Ffamily%3DTitillium%2BWeb;" edge="1" parent="1" source="_5v1Q2Jf54vhMXoZwSZo-17" target="_5v1Q2Jf54vhMXoZwSZo-5">
          <mxGeometry relative="1" as="geometry" />
        </mxCell>
        <mxCell id="_5v1Q2Jf54vhMXoZwSZo-41" value="" style="edgeStyle=orthogonalEdgeStyle;shape=link;rounded=0;orthogonalLoop=1;jettySize=auto;html=1;fontFamily=Titillium Web;fontSource=https%3A%2F%2Ffonts.googleapis.com%2Fcss%3Ffamily%3DTitillium%2BWeb;" edge="1" parent="1" source="_5v1Q2Jf54vhMXoZwSZo-17" target="_5v1Q2Jf54vhMXoZwSZo-6">
          <mxGeometry relative="1" as="geometry" />
        </mxCell>
        <mxCell id="_5v1Q2Jf54vhMXoZwSZo-17" value="&lt;div&gt;Guard&lt;/div&gt;&lt;div&gt;Post&lt;br&gt;&lt;/div&gt;" style="verticalLabelPosition=middle;verticalAlign=middle;html=1;shape=mxgraph.basic.patternFillRect;fillStyle=diagGrid;step=5;fillStrokeWidth=0.2;fillStrokeColor=#dddddd;fontFamily=Titillium Web;fontSource=https%3A%2F%2Ffonts.googleapis.com%2Fcss%3Ffamily%3DTitillium%2BWeb;labelPosition=center;align=center;" vertex="1" parent="1">
          <mxGeometry x="320" y="440" width="40" height="60" as="geometry" />
        </mxCell>
        <mxCell id="_5v1Q2Jf54vhMXoZwSZo-18" value="&lt;div&gt;Guard Post&lt;br&gt;&lt;/div&gt;" style="verticalLabelPosition=middle;verticalAlign=middle;html=1;shape=mxgraph.basic.patternFillRect;fillStyle=diagGrid;step=5;fillStrokeWidth=0.2;fillStrokeColor=#dddddd;fontFamily=Titillium Web;fontSource=https%3A%2F%2Ffonts.googleapis.com%2Fcss%3Ffamily%3DTitillium%2BWeb;labelPosition=center;align=center;" vertex="1" parent="1">
          <mxGeometry x="585" y="280" width="70" height="30" as="geometry" />
        </mxCell>
        <mxCell id="_5v1Q2Jf54vhMXoZwSZo-27" style="edgeStyle=orthogonalEdgeStyle;shape=link;rounded=0;orthogonalLoop=1;jettySize=auto;html=1;exitX=0.5;exitY=0;exitDx=0;exitDy=0;exitPerimeter=0;entryX=0.5;entryY=1;entryDx=0;entryDy=0;fontFamily=Titillium Web;fontSource=https%3A%2F%2Ffonts.googleapis.com%2Fcss%3Ffamily%3DTitillium%2BWeb;" edge="1" parent="1" source="_5v1Q2Jf54vhMXoZwSZo-19" target="_5v1Q2Jf54vhMXoZwSZo-7">
          <mxGeometry relative="1" as="geometry" />
        </mxCell>
        <mxCell id="_5v1Q2Jf54vhMXoZwSZo-30" style="edgeStyle=orthogonalEdgeStyle;shape=link;rounded=0;orthogonalLoop=1;jettySize=auto;html=1;exitX=0.5;exitY=1;exitDx=0;exitDy=0;exitPerimeter=0;entryX=0.5;entryY=0;entryDx=0;entryDy=0;fontFamily=Titillium Web;fontSource=https%3A%2F%2Ffonts.googleapis.com%2Fcss%3Ffamily%3DTitillium%2BWeb;" edge="1" parent="1" source="_5v1Q2Jf54vhMXoZwSZo-19" target="_5v1Q2Jf54vhMXoZwSZo-9">
          <mxGeometry relative="1" as="geometry" />
        </mxCell>
        <mxCell id="_5v1Q2Jf54vhMXoZwSZo-19" value="&lt;div&gt;Guard Post&lt;br&gt;&lt;/div&gt;" style="verticalLabelPosition=middle;verticalAlign=middle;html=1;shape=mxgraph.basic.patternFillRect;fillStyle=diagGrid;step=5;fillStrokeWidth=0.2;fillStrokeColor=#dddddd;fontFamily=Titillium Web;fontSource=https%3A%2F%2Ffonts.googleapis.com%2Fcss%3Ffamily%3DTitillium%2BWeb;labelPosition=center;align=center;" vertex="1" parent="1">
          <mxGeometry x="585" y="410" width="70" height="30" as="geometry" />
        </mxCell>
        <mxCell id="_5v1Q2Jf54vhMXoZwSZo-24" style="edgeStyle=orthogonalEdgeStyle;shape=link;rounded=0;orthogonalLoop=1;jettySize=auto;html=1;exitX=0;exitY=0.5;exitDx=0;exitDy=0;exitPerimeter=0;entryX=1;entryY=0.5;entryDx=0;entryDy=0;fontFamily=Titillium Web;fontSource=https%3A%2F%2Ffonts.googleapis.com%2Fcss%3Ffamily%3DTitillium%2BWeb;" edge="1" parent="1" source="_5v1Q2Jf54vhMXoZwSZo-20" target="_5v1Q2Jf54vhMXoZwSZo-10">
          <mxGeometry relative="1" as="geometry" />
        </mxCell>
        <mxCell id="_5v1Q2Jf54vhMXoZwSZo-20" value="&lt;div&gt;Guard&lt;/div&gt;&lt;div&gt;Post&lt;br&gt;&lt;/div&gt;" style="verticalLabelPosition=middle;verticalAlign=middle;html=1;shape=mxgraph.basic.patternFillRect;fillStyle=diagGrid;step=5;fillStrokeWidth=0.2;fillStrokeColor=#dddddd;fontFamily=Titillium Web;fontSource=https%3A%2F%2Ffonts.googleapis.com%2Fcss%3Ffamily%3DTitillium%2BWeb;labelPosition=center;align=center;" vertex="1" parent="1">
          <mxGeometry x="910" y="420" width="40" height="60" as="geometry" />
        </mxCell>
        <mxCell id="_5v1Q2Jf54vhMXoZwSZo-28" style="edgeStyle=orthogonalEdgeStyle;shape=link;rounded=0;orthogonalLoop=1;jettySize=auto;html=1;exitX=0;exitY=0.5;exitDx=0;exitDy=0;exitPerimeter=0;fontFamily=Titillium Web;fontSource=https%3A%2F%2Ffonts.googleapis.com%2Fcss%3Ffamily%3DTitillium%2BWeb;" edge="1" parent="1" source="_5v1Q2Jf54vhMXoZwSZo-21">
          <mxGeometry relative="1" as="geometry">
            <mxPoint x="620" y="400" as="targetPoint" />
            <Array as="points">
              <mxPoint x="690" y="450" />
              <mxPoint x="690" y="400" />
            </Array>
          </mxGeometry>
        </mxCell>
        <mxCell id="_5v1Q2Jf54vhMXoZwSZo-21" value="&lt;div&gt;Guard&lt;/div&gt;&lt;div&gt;Post&lt;br&gt;&lt;/div&gt;" style="verticalLabelPosition=middle;verticalAlign=middle;html=1;shape=mxgraph.basic.patternFillRect;fillStyle=diagGrid;step=5;fillStrokeWidth=0.2;fillStrokeColor=#dddddd;fontFamily=Titillium Web;fontSource=https%3A%2F%2Ffonts.googleapis.com%2Fcss%3Ffamily%3DTitillium%2BWeb;labelPosition=center;align=center;" vertex="1" parent="1">
          <mxGeometry x="710" y="420" width="40" height="60" as="geometry" />
        </mxCell>
      </root>
    </mxGraphModel>
  </diagram>
</mxfile>
